<svg width="311" height="107" viewBox="0 0 311 107" fill="none" xmlns="http://www.w3.org/2000/svg">
<line x1="131" y1="31" x2="194" y2="31" stroke="#91A81C" stroke-width="2"/>
<line x1="115" y1="66" x2="133" y2="66" stroke="#91A81C" stroke-width="2"/>
<line x1="132" y1="66" x2="132" y2="26" stroke="#91A81C" stroke-width="2"/>
<path d="M203.5 73C203.5 90.4678 189.775 104.5 173 104.5C156.225 104.5 142.5 90.4678 142.5 73C142.5 55.5322 156.225 41.5 173 41.5C189.775 41.5 203.5 55.5322 203.5 73Z" stroke="black" stroke-width="5"/>
<circle cx="25" cy="10" r="2.5" fill="black" stroke="black" stroke-width="3"/>
<mask id="path-6-inside-1_11_60" fill="white">
<path d="M101.178 78.2594C100.325 77.8065 99.991 76.7392 100.547 75.9485C101.968 73.9269 103.906 72.3084 106.171 71.271C108.97 69.9896 112.113 69.6661 115.113 70.3506C118.114 71.035 120.806 72.6893 122.772 75.0574C124.738 77.4256 125.869 80.3756 125.989 83.4511C126.11 86.5266 125.214 89.5562 123.439 92.0711C121.665 94.586 119.111 96.4461 116.173 97.3635C113.235 98.281 110.077 98.2047 107.187 97.1465C104.847 96.2898 102.788 94.8281 101.213 92.9241C100.597 92.1794 100.846 91.0893 101.661 90.5708V90.5708C102.477 90.0524 103.549 90.3059 104.196 91.0243C105.336 92.291 106.773 93.268 108.39 93.8599C110.558 94.6536 112.926 94.7108 115.13 94.0227C117.333 93.3346 119.249 91.9395 120.579 90.0533C121.91 88.1671 122.582 85.895 122.492 83.5883C122.401 81.2817 121.553 79.0692 120.079 77.2931C118.604 75.517 116.586 74.2763 114.335 73.7629C112.084 73.2496 109.727 73.4922 107.629 74.4533C106.063 75.1701 104.706 76.2567 103.669 77.6088C103.081 78.3757 102.032 78.7123 101.178 78.2594V78.2594Z"/>
</mask>
<path d="M101.178 78.2594C100.325 77.8065 99.991 76.7392 100.547 75.9485C101.968 73.9269 103.906 72.3084 106.171 71.271C108.97 69.9896 112.113 69.6661 115.113 70.3506C118.114 71.035 120.806 72.6893 122.772 75.0574C124.738 77.4256 125.869 80.3756 125.989 83.4511C126.11 86.5266 125.214 89.5562 123.439 92.0711C121.665 94.586 119.111 96.4461 116.173 97.3635C113.235 98.281 110.077 98.2047 107.187 97.1465C104.847 96.2898 102.788 94.8281 101.213 92.9241C100.597 92.1794 100.846 91.0893 101.661 90.5708V90.5708C102.477 90.0524 103.549 90.3059 104.196 91.0243C105.336 92.291 106.773 93.268 108.39 93.8599C110.558 94.6536 112.926 94.7108 115.13 94.0227C117.333 93.3346 119.249 91.9395 120.579 90.0533C121.91 88.1671 122.582 85.895 122.492 83.5883C122.401 81.2817 121.553 79.0692 120.079 77.2931C118.604 75.517 116.586 74.2763 114.335 73.7629C112.084 73.2496 109.727 73.4922 107.629 74.4533C106.063 75.1701 104.706 76.2567 103.669 77.6088C103.081 78.3757 102.032 78.7123 101.178 78.2594V78.2594Z" stroke="black" stroke-width="14" mask="url(#path-6-inside-1_11_60)"/>
<mask id="path-7-inside-2_11_60" fill="white">
<path d="M29.5968 76.3866C30.354 75.7859 31.4654 75.9081 31.967 76.7343C33.2495 78.8466 33.9556 81.2706 33.998 83.7621C34.0503 86.8395 33.087 89.8484 31.2571 92.3233C29.4273 94.7981 26.8329 96.601 23.8753 97.453C20.9177 98.3049 17.7617 98.1585 14.8957 97.0363C12.0297 95.9142 9.61336 93.8788 8.02053 91.2452C6.42769 88.6115 5.74715 85.5263 6.08419 82.467C6.42123 79.4076 7.75705 76.5446 9.885 74.3208C11.6078 72.5204 13.7721 71.2203 16.1478 70.5404C17.077 70.2745 17.976 70.9394 18.124 71.8945V71.8945C18.272 72.8496 17.6102 73.73 16.6929 74.0344C15.0754 74.5712 13.6041 75.4967 12.4138 76.7406C10.8178 78.4084 9.81592 80.5557 9.56314 82.8502C9.31037 85.1447 9.82077 87.4586 11.0154 89.4339C12.21 91.4091 14.0223 92.9356 16.1718 93.7773C18.3213 94.6189 20.6882 94.7287 22.9065 94.0897C25.1247 93.4507 27.0705 92.0986 28.4429 90.2424C29.8152 88.3863 30.5377 86.1296 30.4985 83.8216C30.4692 82.1001 30.0175 80.4216 29.1945 78.9293C28.7277 78.083 28.8396 76.9873 29.5968 76.3866V76.3866Z"/>
</mask>
<path d="M29.5968 76.3866C30.354 75.7859 31.4654 75.9081 31.967 76.7343C33.2495 78.8466 33.9556 81.2706 33.998 83.7621C34.0503 86.8395 33.087 89.8484 31.2571 92.3233C29.4273 94.7981 26.8329 96.601 23.8753 97.453C20.9177 98.3049 17.7617 98.1585 14.8957 97.0363C12.0297 95.9142 9.61336 93.8788 8.02053 91.2452C6.42769 88.6115 5.74715 85.5263 6.08419 82.467C6.42123 79.4076 7.75705 76.5446 9.885 74.3208C11.6078 72.5204 13.7721 71.2203 16.1478 70.5404C17.077 70.2745 17.976 70.9394 18.124 71.8945V71.8945C18.272 72.8496 17.6102 73.73 16.6929 74.0344C15.0754 74.5712 13.6041 75.4967 12.4138 76.7406C10.8178 78.4084 9.81592 80.5557 9.56314 82.8502C9.31037 85.1447 9.82077 87.4586 11.0154 89.4339C12.21 91.4091 14.0223 92.9356 16.1718 93.7773C18.3213 94.6189 20.6882 94.7287 22.9065 94.0897C25.1247 93.4507 27.0705 92.0986 28.4429 90.2424C29.8152 88.3863 30.5377 86.1296 30.4985 83.8216C30.4692 82.1001 30.0175 80.4216 29.1945 78.9293C28.7277 78.083 28.8396 76.9873 29.5968 76.3866V76.3866Z" stroke="black" stroke-width="14" mask="url(#path-7-inside-2_11_60)"/>
<mask id="path-8-inside-3_11_60" fill="white">
<path d="M93.5977 84C92.7153 84 91.9934 83.2835 92.0638 82.404C92.3467 78.8697 93.5653 75.4636 95.6076 72.5419C97.9558 69.1824 101.279 66.6256 105.129 65.2174C108.978 63.8092 113.167 63.6177 117.129 64.6688C120.574 65.583 123.703 67.3986 126.2 69.916C126.821 70.5425 126.732 71.5557 126.058 72.125V72.125C125.384 72.6944 124.381 72.6032 123.75 71.9863C121.683 69.9644 119.122 68.5034 116.309 67.7573C112.981 66.8741 109.461 67.035 106.227 68.2182C102.992 69.4014 100.2 71.5498 98.2265 74.3725C96.5596 76.7573 95.5457 79.5261 95.2712 82.4047C95.1874 83.2831 94.48 84 93.5977 84V84Z"/>
</mask>
<path d="M93.5977 84C92.7153 84 91.9934 83.2835 92.0638 82.404C92.3467 78.8697 93.5653 75.4636 95.6076 72.5419C97.9558 69.1824 101.279 66.6256 105.129 65.2174C108.978 63.8092 113.167 63.6177 117.129 64.6688C120.574 65.583 123.703 67.3986 126.2 69.916C126.821 70.5425 126.732 71.5557 126.058 72.125V72.125C125.384 72.6944 124.381 72.6032 123.75 71.9863C121.683 69.9644 119.122 68.5034 116.309 67.7573C112.981 66.8741 109.461 67.035 106.227 68.2182C102.992 69.4014 100.2 71.5498 98.2265 74.3725C96.5596 76.7573 95.5457 79.5261 95.2712 82.4047C95.1874 83.2831 94.48 84 93.5977 84V84Z" stroke="black" stroke-width="10" mask="url(#path-8-inside-3_11_60)"/>
<mask id="path-9-inside-4_11_60" fill="white">
<path d="M6.98758 70.9876C6.36365 70.3637 6.35979 69.3466 7.03151 68.7744C9.62289 66.5672 12.7423 65.0518 16.0982 64.3843C19.9778 63.6126 23.9991 64.0087 27.6537 65.5224C31.3082 67.0362 34.4318 69.5996 36.6294 72.8886C38.5303 75.7335 39.6646 79.0108 39.9362 82.404C40.0066 83.2835 39.2847 84 38.4023 84V84C37.52 84 36.8126 83.2831 36.7288 82.4047C36.4656 79.6444 35.5223 76.9831 33.9726 74.6638C32.1261 71.9003 29.5015 69.7464 26.4309 68.4745C23.3602 67.2026 19.9814 66.8698 16.7216 67.5182C13.9858 68.0624 11.437 69.2772 9.29899 71.0429C8.61865 71.6048 7.6115 71.6115 6.98758 70.9876V70.9876Z"/>
</mask>
<path d="M6.98758 70.9876C6.36365 70.3637 6.35979 69.3466 7.03151 68.7744C9.62289 66.5672 12.7423 65.0518 16.0982 64.3843C19.9778 63.6126 23.9991 64.0087 27.6537 65.5224C31.3082 67.0362 34.4318 69.5996 36.6294 72.8886C38.5303 75.7335 39.6646 79.0108 39.9362 82.404C40.0066 83.2835 39.2847 84 38.4023 84V84C37.52 84 36.8126 83.2831 36.7288 82.4047C36.4656 79.6444 35.5223 76.9831 33.9726 74.6638C32.1261 71.9003 29.5015 69.7464 26.4309 68.4745C23.3602 67.2026 19.9814 66.8698 16.7216 67.5182C13.9858 68.0624 11.437 69.2772 9.29899 71.0429C8.61865 71.6048 7.6115 71.6115 6.98758 70.9876V70.9876Z" stroke="black" stroke-width="10" mask="url(#path-9-inside-4_11_60)"/>
<circle cx="173" cy="73" r="2.5" stroke="black" stroke-width="5"/>
<circle cx="278" cy="74" r="2.5" stroke="black" stroke-width="5"/>
<path d="M308.5 73C308.5 90.4678 294.775 104.5 278 104.5C261.225 104.5 247.5 90.4678 247.5 73C247.5 55.5322 261.225 41.5 278 41.5C294.775 41.5 308.5 55.5322 308.5 73Z" stroke="black" stroke-width="5"/>
<path d="M222 75.5C223.381 75.5 224.5 74.3807 224.5 73C224.5 71.6193 223.381 70.5 222 70.5V75.5ZM172 75.5H222V70.5H172V75.5Z" fill="black"/>
<path d="M257 27.5C258.381 27.5 259.5 26.3807 259.5 25C259.5 23.6193 258.381 22.5 257 22.5V27.5ZM200 27.5L257 27.5V22.5L200 22.5V27.5Z" fill="black"/>
<path d="M112 87.5C113.933 87.5 115.5 85.933 115.5 84C115.5 82.067 113.933 80.5 112 80.5V87.5ZM54 87.5L112 87.5V80.5L54 80.5V87.5Z" fill="black"/>
<path d="M222 73L258 26" stroke="black" stroke-width="5" stroke-linecap="round"/>
<path d="M173 73L199 23" stroke="black" stroke-width="5" stroke-linecap="round"/>
<path d="M183 10H205" stroke="black" stroke-width="5" stroke-linecap="round"/>
<path d="M236 10L252 10" stroke="black" stroke-width="5" stroke-linecap="round"/>
<path d="M223 72L194 10" stroke="black" stroke-width="5" stroke-linecap="round"/>
<path d="M54 84L30 56" stroke="black" stroke-width="7" stroke-linecap="round"/>
<path d="M33 46L20 84" stroke="black" stroke-width="7" stroke-linecap="round"/>
<path d="M44 10L35 39" stroke="black" stroke-width="5" stroke-linecap="round"/>
<path d="M44 10L32 10" stroke="black" stroke-width="5" stroke-linecap="round"/>
<path d="M278 73L252 10" stroke="black" stroke-width="5" stroke-linecap="round"/>
<g clip-path="url(#clip0_11_60)">
<path d="M131.97 28.2843V23.3345M128.435 9.19238V14.1421M135.506 9.19238V14.1421M126.162 14.2941H137.779L137.779 17.1989C137.795 17.9713 137.655 18.739 137.37 19.457C137.085 20.1751 136.66 20.829 136.119 21.3806C135.578 21.9323 134.932 22.3705 134.22 22.6696C133.508 22.9688 132.743 23.1229 131.971 23.1229C131.198 23.1229 130.433 22.9688 129.721 22.6696C129.009 22.3705 128.363 21.9323 127.822 21.3806C127.281 20.829 126.856 20.1751 126.571 19.457C126.286 18.739 126.146 17.9713 126.162 17.1989V14.2941Z" stroke="#91A81C" stroke-width="2" stroke-linecap="round" stroke-linejoin="round"/>
</g>
<defs>
<clipPath id="clip0_11_60">
<rect width="24" height="24" fill="white" transform="translate(115 16.9706) rotate(-45)"/>
</clipPath>
</defs>
</svg>
