<svg width="310" height="201" viewBox="0 0 310 201" fill="none" xmlns="http://www.w3.org/2000/svg">
<path fill-rule="evenodd" clip-rule="evenodd" d="M187.584 12.2975V55.4847C187.584 73.4394 172.992 88.0691 155 88.0691C137.008 88.0691 122.416 73.4394 122.416 55.4847C122.416 37.4931 137.008 22.8634 155 22.8634C165.307 22.8634 174.469 27.6661 180.454 35.1287V12.2975H187.584ZM180.454 55.4847C180.454 41.4461 169.002 30.0305 155 30.0305C140.961 30.0305 129.546 41.4461 129.546 55.4847C129.546 69.4864 140.961 80.902 155 80.902C169.002 80.902 180.454 69.4864 180.454 55.4847Z" fill="white"/>
<path fill-rule="evenodd" clip-rule="evenodd" d="M209.677 55.4847C209.677 85.5939 185.146 110.125 155 110.125C151.232 110.125 147.463 109.755 143.806 108.979V132.808L110.483 87.1825C103.833 77.8726 100.323 66.9004 100.323 55.4847C100.323 25.3386 124.854 0.807983 155 0.807983C185.146 0.807983 209.677 25.3386 209.677 55.4847ZM202.51 55.4847C202.51 29.2547 181.193 7.93813 155 7.93813C128.807 7.93813 107.49 29.2547 107.49 55.4847C107.49 65.4226 110.52 74.9541 116.283 83.0078L136.676 110.9V54.672H136.713C137.156 44.9188 145.173 37.1237 155 37.1237C165.123 37.1237 173.324 45.3621 173.324 55.4847C173.324 65.5704 165.123 73.8088 155 73.8088C150.788 73.8088 146.909 72.368 143.806 69.9667V101.664C147.463 102.551 151.232 102.994 155 102.994C181.193 102.994 202.51 81.6778 202.51 55.4847ZM143.806 55.4847C143.806 61.6174 148.83 66.6417 155 66.6417C161.17 66.6417 166.194 61.6174 166.194 55.4847C166.194 49.3151 161.17 44.2908 155 44.2908C148.83 44.2908 143.806 49.3151 143.806 55.4847Z" fill="white"/>
<path d="M3.36 196.808V163.208H17.04C20.176 163.208 22.752 163.672 24.768 164.6C26.784 165.496 28.272 166.808 29.232 168.536C30.224 170.232 30.72 172.28 30.72 174.68C30.72 177.048 30.224 179.096 29.232 180.824C28.272 182.552 26.784 183.88 24.768 184.808C22.752 185.704 20.176 186.152 17.04 186.152H12V196.808H3.36ZM12 179.048H16.08C18.288 179.048 19.84 178.68 20.736 177.944C21.632 177.208 22.08 176.12 22.08 174.68C22.08 173.24 21.632 172.152 20.736 171.416C19.84 170.68 18.288 170.312 16.08 170.312H12V179.048ZM28.4876 196.808L40.7756 163.208H49.4156L61.6556 196.808H52.5356L50.2316 190.376H38.9996L36.6956 196.808H28.4876ZM41.4476 183.752H47.7836L44.6156 173.768L41.4476 183.752ZM64.5338 196.808V163.208H79.1738C81.9898 163.208 84.3258 163.672 86.1818 164.6C88.0698 165.528 89.4938 166.824 90.4538 168.488C91.4138 170.152 91.8938 172.136 91.8938 174.44C91.8938 176.84 91.3178 178.904 90.1658 180.632C89.0458 182.328 87.3498 183.576 85.0778 184.376L92.8538 196.808H83.2538L76.7258 185.288H73.1738V196.808H64.5338ZM73.1738 178.568H77.2538C79.5578 178.568 81.1258 178.232 81.9578 177.56C82.8218 176.856 83.2538 175.816 83.2538 174.44C83.2538 173.064 82.8218 172.04 81.9578 171.368C81.1258 170.664 79.5578 170.312 77.2538 170.312H73.1738V178.568ZM96.9488 196.808V163.208H105.589V176.696L117.301 163.208H126.709L114.229 177.032L127.669 196.808H117.589L108.373 182.648L105.589 185.72V196.808H96.9488ZM130.77 196.808V163.208H139.602L148.914 180.248L158.13 163.208H166.77V196.808H158.13V177.56L151.17 190.328H146.37L139.41 177.56V196.808H130.77ZM172.513 196.808V163.208H196.993V169.832H181.153V176.408H195.553V182.648H181.153V190.184H196.993V196.808H172.513ZM212.593 196.808V163.208H226.273C229.409 163.208 231.985 163.672 234.001 164.6C236.017 165.496 237.505 166.808 238.465 168.536C239.457 170.232 239.953 172.28 239.953 174.68C239.953 177.048 239.457 179.096 238.465 180.824C237.505 182.552 236.017 183.88 234.001 184.808C231.985 185.704 229.409 186.152 226.273 186.152H221.233V196.808H212.593ZM221.233 179.048H225.313C227.521 179.048 229.073 178.68 229.969 177.944C230.865 177.208 231.313 176.12 231.313 174.68C231.313 173.24 230.865 172.152 229.969 171.416C229.073 170.68 227.521 170.312 225.313 170.312H221.233V179.048ZM243.789 196.808V163.208H258.429C261.245 163.208 263.581 163.672 265.437 164.6C267.325 165.528 268.749 166.824 269.709 168.488C270.669 170.152 271.149 172.136 271.149 174.44C271.149 176.84 270.573 178.904 269.421 180.632C268.301 182.328 266.605 183.576 264.333 184.376L272.109 196.808H262.509L255.981 185.288H252.429V196.808H243.789ZM252.429 178.568H256.509C258.813 178.568 260.381 178.232 261.213 177.56C262.077 176.856 262.509 175.816 262.509 174.44C262.509 173.064 262.077 172.04 261.213 171.368C260.381 170.664 258.813 170.312 256.509 170.312H252.429V178.568ZM291.324 197.432C289.148 197.432 287.068 197.112 285.084 196.472C283.1 195.832 281.356 194.824 279.852 193.448C278.348 192.072 277.164 190.296 276.3 188.12C275.436 185.912 275.004 183.288 275.004 180.248V179.288C275.004 176.344 275.436 173.816 276.3 171.704C277.164 169.592 278.348 167.864 279.852 166.52C281.356 165.176 283.1 164.184 285.084 163.544C287.068 162.904 289.148 162.584 291.324 162.584C293.564 162.584 295.66 162.904 297.612 163.544C299.564 164.184 301.292 165.176 302.796 166.52C304.3 167.864 305.484 169.592 306.348 171.704C307.212 173.816 307.644 176.344 307.644 179.288V180.248C307.644 183.288 307.212 185.912 306.348 188.12C305.484 190.296 304.3 192.072 302.796 193.448C301.292 194.824 299.564 195.832 297.612 196.472C295.66 197.112 293.564 197.432 291.324 197.432ZM291.276 190.232C292.588 190.232 293.804 189.944 294.924 189.368C296.044 188.76 296.94 187.752 297.612 186.344C298.316 184.904 298.668 182.872 298.668 180.248V179.288C298.668 176.792 298.316 174.856 297.612 173.48C296.94 172.104 296.044 171.144 294.924 170.6C293.804 170.056 292.588 169.784 291.276 169.784C290.028 169.784 288.844 170.056 287.724 170.6C286.604 171.144 285.692 172.104 284.988 173.48C284.284 174.856 283.932 176.792 283.932 179.288V180.248C283.932 182.872 284.284 184.904 284.988 186.344C285.692 187.752 286.604 188.76 287.724 189.368C288.844 189.944 290.028 190.232 291.276 190.232Z" fill="white"/>
</svg>
