<svg width="362" height="52" viewBox="0 0 362 52" fill="none" xmlns="http://www.w3.org/2000/svg">
<g clip-path="url(#clip0_85_94375)">
<path fill-rule="evenodd" clip-rule="evenodd" d="M34.3756 4.52617V21.5393C34.3756 28.6124 28.6269 34.3756 21.5393 34.3756C14.4517 34.3756 8.70305 28.6124 8.70305 21.5393C8.70305 14.4517 14.4517 8.6885 21.5393 8.6885C25.5998 8.6885 29.2091 10.5805 31.5668 13.5203V4.52617H34.3756ZM31.5668 21.5393C31.5668 16.009 27.0551 11.5119 21.5393 11.5119C16.009 11.5119 11.5119 16.009 11.5119 21.5393C11.5119 27.0551 16.009 31.5522 21.5393 31.5522C27.0551 31.5522 31.5668 27.0551 31.5668 21.5393Z" fill="#FAC414"/>
<path fill-rule="evenodd" clip-rule="evenodd" d="M43.0786 21.5393C43.0786 33.4005 33.4151 43.0641 21.5393 43.0641C20.0549 43.0641 18.5704 42.9186 17.1296 42.6129V52L4.00224 34.0263C1.38259 30.3588 0 26.0364 0 21.5393C0 9.66359 9.66359 0 21.5393 0C33.4151 0 43.0786 9.66359 43.0786 21.5393ZM40.2552 21.5393C40.2552 11.2063 31.8578 2.80884 21.5393 2.80884C11.2208 2.80884 2.8234 11.2063 2.8234 21.5393C2.8234 25.4542 4.01679 29.2091 6.28716 32.3818L14.3207 43.3697V21.2191H14.3353C14.5099 17.377 17.6681 14.3062 21.5393 14.3062C25.527 14.3062 28.7579 17.5516 28.7579 21.5393C28.7579 25.5125 25.527 28.7579 21.5393 28.7579C19.8802 28.7579 18.3521 28.1903 17.1296 27.2443V39.7313C18.5704 40.0806 20.0549 40.2552 21.5393 40.2552C31.8578 40.2552 40.2552 31.8578 40.2552 21.5393ZM17.1296 21.5393C17.1296 23.9552 19.1089 25.9345 21.5393 25.9345C23.9698 25.9345 25.9491 23.9552 25.9491 21.5393C25.9491 19.1089 23.9698 17.1296 21.5393 17.1296C19.1089 17.1296 17.1296 19.1089 17.1296 21.5393Z" fill="#FAC414"/>
<path d="M57.36 44V10.4H71.04C74.176 10.4 76.752 10.864 78.768 11.792C80.784 12.688 82.272 14 83.232 15.728C84.224 17.424 84.72 19.472 84.72 21.872C84.72 24.24 84.224 26.288 83.232 28.016C82.272 29.744 80.784 31.072 78.768 32C76.752 32.896 74.176 33.344 71.04 33.344H66V44H57.36ZM66 26.24H70.08C72.288 26.24 73.84 25.872 74.736 25.136C75.632 24.4 76.08 23.312 76.08 21.872C76.08 20.432 75.632 19.344 74.736 18.608C73.84 17.872 72.288 17.504 70.08 17.504H66V26.24Z" fill="#FAC414"/>
<path d="M82.4876 44L94.7756 10.4H103.416L115.656 44H106.536L104.232 37.568H92.9996L90.6956 44H82.4876ZM95.4476 30.944H101.784L98.6156 20.96L95.4476 30.944Z" fill="#FAC414"/>
<path d="M118.534 44V10.4H133.174C135.99 10.4 138.326 10.864 140.182 11.792C142.07 12.72 143.494 14.016 144.454 15.68C145.414 17.344 145.894 19.328 145.894 21.632C145.894 24.032 145.318 26.096 144.166 27.824C143.046 29.52 141.35 30.768 139.078 31.568L146.854 44H137.254L130.726 32.48H127.174V44H118.534ZM127.174 25.76H131.254C133.558 25.76 135.126 25.424 135.958 24.752C136.822 24.048 137.254 23.008 137.254 21.632C137.254 20.256 136.822 19.232 135.958 18.56C135.126 17.856 133.558 17.504 131.254 17.504H127.174V25.76Z" fill="#FAC414"/>
<path d="M150.949 44V10.4H159.589V23.888L171.301 10.4H180.709L168.229 24.224L181.669 44H171.589L162.373 29.84L159.589 32.912V44H150.949Z" fill="#FAC414"/>
<path d="M184.77 44V10.4H193.602L202.914 27.44L212.13 10.4H220.77V44H212.13V24.752L205.17 37.52H200.37L193.41 24.752V44H184.77Z" fill="#FAC414"/>
<path d="M226.513 44V10.4H250.993V17.024H235.153V23.6H249.553V29.84H235.153V37.376H250.993V44H226.513Z" fill="#FAC414"/>
<path d="M266.593 44V10.4H280.273C283.409 10.4 285.985 10.864 288.001 11.792C290.017 12.688 291.505 14 292.465 15.728C293.457 17.424 293.953 19.472 293.953 21.872C293.953 24.24 293.457 26.288 292.465 28.016C291.505 29.744 290.017 31.072 288.001 32C285.985 32.896 283.409 33.344 280.273 33.344H275.233V44H266.593ZM275.233 26.24H279.313C281.521 26.24 283.073 25.872 283.969 25.136C284.865 24.4 285.313 23.312 285.313 21.872C285.313 20.432 284.865 19.344 283.969 18.608C283.073 17.872 281.521 17.504 279.313 17.504H275.233V26.24Z" fill="#FAC414"/>
<path d="M297.789 44V10.4H312.429C315.245 10.4 317.581 10.864 319.437 11.792C321.325 12.72 322.749 14.016 323.709 15.68C324.669 17.344 325.149 19.328 325.149 21.632C325.149 24.032 324.573 26.096 323.421 27.824C322.301 29.52 320.605 30.768 318.333 31.568L326.109 44H316.509L309.981 32.48H306.429V44H297.789ZM306.429 25.76H310.509C312.813 25.76 314.381 25.424 315.213 24.752C316.077 24.048 316.509 23.008 316.509 21.632C316.509 20.256 316.077 19.232 315.213 18.56C314.381 17.856 312.813 17.504 310.509 17.504H306.429V25.76Z" fill="#FAC414"/>
<path d="M345.324 44.624C343.148 44.624 341.068 44.304 339.084 43.664C337.1 43.024 335.356 42.016 333.852 40.64C332.348 39.264 331.164 37.488 330.3 35.312C329.436 33.104 329.004 30.48 329.004 27.44V26.48C329.004 23.536 329.436 21.008 330.3 18.896C331.164 16.784 332.348 15.056 333.852 13.712C335.356 12.368 337.1 11.376 339.084 10.736C341.068 10.096 343.148 9.776 345.324 9.776C347.564 9.776 349.66 10.096 351.612 10.736C353.564 11.376 355.292 12.368 356.796 13.712C358.3 15.056 359.484 16.784 360.348 18.896C361.212 21.008 361.644 23.536 361.644 26.48V27.44C361.644 30.48 361.212 33.104 360.348 35.312C359.484 37.488 358.3 39.264 356.796 40.64C355.292 42.016 353.564 43.024 351.612 43.664C349.66 44.304 347.564 44.624 345.324 44.624ZM345.276 37.424C346.588 37.424 347.804 37.136 348.924 36.56C350.044 35.952 350.94 34.944 351.612 33.536C352.316 32.096 352.668 30.064 352.668 27.44V26.48C352.668 23.984 352.316 22.048 351.612 20.672C350.94 19.296 350.044 18.336 348.924 17.792C347.804 17.248 346.588 16.976 345.276 16.976C344.028 16.976 342.844 17.248 341.724 17.792C340.604 18.336 339.692 19.296 338.988 20.672C338.284 22.048 337.932 23.984 337.932 26.48V27.44C337.932 30.064 338.284 32.096 338.988 33.536C339.692 34.944 340.604 35.952 341.724 36.56C342.844 37.136 344.028 37.424 345.276 37.424Z" fill="#FAC414"/>
</g>
<defs>
<clipPath id="clip0_85_94375">
<rect width="362" height="52" fill="white"/>
</clipPath>
</defs>
</svg>
