<svg width="1240" height="149" viewBox="0 0 1240 149" fill="none" xmlns="http://www.w3.org/2000/svg">
<line x1="131" y1="45" x2="194" y2="45" stroke="#91A81C" stroke-width="2"/>
<line x1="115" y1="80" x2="133" y2="80" stroke="#91A81C" stroke-width="2"/>
<line x1="132" y1="80" x2="132" y2="40" stroke="#91A81C" stroke-width="2"/>
<path d="M203.5 87C203.5 104.468 189.775 118.5 173 118.5C156.225 118.5 142.5 104.468 142.5 87C142.5 69.5322 156.225 55.5 173 55.5C189.775 55.5 203.5 69.5322 203.5 87Z" stroke="black" stroke-width="5"/>
<circle cx="25" cy="24" r="2.5" fill="black" stroke="black" stroke-width="3"/>
<mask id="path-6-inside-1_26_31" fill="white">
<path d="M101.178 92.2594C100.325 91.8065 99.991 90.7392 100.547 89.9485C101.968 87.927 103.906 86.3085 106.171 85.271C108.97 83.9896 112.113 83.6661 115.113 84.3506C118.114 85.035 120.806 86.6893 122.772 89.0575C124.738 91.4256 125.869 94.3756 125.989 97.4511C126.11 100.527 125.214 103.556 123.439 106.071C121.665 108.586 119.111 110.446 116.173 111.364C113.235 112.281 110.077 112.205 107.187 111.147C104.847 110.29 102.788 108.828 101.213 106.924C100.597 106.179 100.846 105.089 101.661 104.571V104.571C102.477 104.052 103.549 104.306 104.196 105.024C105.336 106.291 106.773 107.268 108.39 107.86C110.558 108.654 112.926 108.711 115.13 108.023C117.333 107.335 119.249 105.94 120.579 104.053C121.91 102.167 122.582 99.895 122.492 97.5884C122.401 95.2817 121.553 93.0692 120.079 91.2931C118.604 89.517 116.586 88.2763 114.335 87.7629C112.084 87.2496 109.727 87.4922 107.629 88.4533C106.063 89.1701 104.706 90.2567 103.669 91.6088C103.081 92.3757 102.032 92.7123 101.178 92.2594V92.2594Z"/>
</mask>
<path d="M101.178 92.2594C100.325 91.8065 99.991 90.7392 100.547 89.9485C101.968 87.927 103.906 86.3085 106.171 85.271C108.97 83.9896 112.113 83.6661 115.113 84.3506C118.114 85.035 120.806 86.6893 122.772 89.0575C124.738 91.4256 125.869 94.3756 125.989 97.4511C126.11 100.527 125.214 103.556 123.439 106.071C121.665 108.586 119.111 110.446 116.173 111.364C113.235 112.281 110.077 112.205 107.187 111.147C104.847 110.29 102.788 108.828 101.213 106.924C100.597 106.179 100.846 105.089 101.661 104.571V104.571C102.477 104.052 103.549 104.306 104.196 105.024C105.336 106.291 106.773 107.268 108.39 107.86C110.558 108.654 112.926 108.711 115.13 108.023C117.333 107.335 119.249 105.94 120.579 104.053C121.91 102.167 122.582 99.895 122.492 97.5884C122.401 95.2817 121.553 93.0692 120.079 91.2931C118.604 89.517 116.586 88.2763 114.335 87.7629C112.084 87.2496 109.727 87.4922 107.629 88.4533C106.063 89.1701 104.706 90.2567 103.669 91.6088C103.081 92.3757 102.032 92.7123 101.178 92.2594V92.2594Z" stroke="black" stroke-width="14" mask="url(#path-6-inside-1_26_31)"/>
<mask id="path-7-inside-2_26_31" fill="white">
<path d="M29.5968 90.3866C30.354 89.7859 31.4654 89.9082 31.967 90.7343C33.2495 92.8466 33.9556 95.2706 33.998 97.7621C34.0503 100.84 33.087 103.848 31.2571 106.323C29.4273 108.798 26.8329 110.601 23.8753 111.453C20.9177 112.305 17.7617 112.159 14.8957 111.036C12.0297 109.914 9.61336 107.879 8.02053 105.245C6.42769 102.612 5.74715 99.5263 6.08419 96.467C6.42123 93.4076 7.75705 90.5446 9.885 88.3208C11.6078 86.5204 13.7721 85.2203 16.1478 84.5404C17.077 84.2745 17.976 84.9394 18.124 85.8945V85.8945C18.272 86.8496 17.6102 87.73 16.6929 88.0344C15.0754 88.5712 13.6041 89.4967 12.4138 90.7406C10.8178 92.4084 9.81592 94.5557 9.56314 96.8502C9.31037 99.1448 9.82077 101.459 11.0154 103.434C12.21 105.409 14.0223 106.936 16.1718 107.777C18.3213 108.619 20.6882 108.729 22.9065 108.09C25.1247 107.451 27.0705 106.099 28.4429 104.242C29.8152 102.386 30.5377 100.13 30.4985 97.8216C30.4692 96.1001 30.0175 94.4216 29.1945 92.9293C28.7277 92.083 28.8396 90.9873 29.5968 90.3866V90.3866Z"/>
</mask>
<path d="M29.5968 90.3866C30.354 89.7859 31.4654 89.9082 31.967 90.7343C33.2495 92.8466 33.9556 95.2706 33.998 97.7621C34.0503 100.84 33.087 103.848 31.2571 106.323C29.4273 108.798 26.8329 110.601 23.8753 111.453C20.9177 112.305 17.7617 112.159 14.8957 111.036C12.0297 109.914 9.61336 107.879 8.02053 105.245C6.42769 102.612 5.74715 99.5263 6.08419 96.467C6.42123 93.4076 7.75705 90.5446 9.885 88.3208C11.6078 86.5204 13.7721 85.2203 16.1478 84.5404C17.077 84.2745 17.976 84.9394 18.124 85.8945V85.8945C18.272 86.8496 17.6102 87.73 16.6929 88.0344C15.0754 88.5712 13.6041 89.4967 12.4138 90.7406C10.8178 92.4084 9.81592 94.5557 9.56314 96.8502C9.31037 99.1448 9.82077 101.459 11.0154 103.434C12.21 105.409 14.0223 106.936 16.1718 107.777C18.3213 108.619 20.6882 108.729 22.9065 108.09C25.1247 107.451 27.0705 106.099 28.4429 104.242C29.8152 102.386 30.5377 100.13 30.4985 97.8216C30.4692 96.1001 30.0175 94.4216 29.1945 92.9293C28.7277 92.083 28.8396 90.9873 29.5968 90.3866V90.3866Z" stroke="black" stroke-width="14" mask="url(#path-7-inside-2_26_31)"/>
<mask id="path-8-inside-3_26_31" fill="white">
<path d="M93.5977 98C92.7153 98 91.9934 97.2836 92.0638 96.404C92.3467 92.8697 93.5653 89.4636 95.6076 86.5419C97.9558 83.1825 101.279 80.6256 105.129 79.2174C108.978 77.8092 113.167 77.6177 117.129 78.6688C120.574 79.583 123.703 81.3986 126.2 83.916C126.821 84.5425 126.732 85.5557 126.058 86.1251V86.1251C125.384 86.6944 124.381 86.6033 123.75 85.9863C121.683 83.9644 119.122 82.5034 116.309 81.7573C112.981 80.8741 109.461 81.035 106.227 82.2182C102.992 83.4014 100.2 85.5498 98.2265 88.3725C96.5596 90.7573 95.5457 93.5262 95.2712 96.4047C95.1874 97.2831 94.48 98 93.5977 98V98Z"/>
</mask>
<path d="M93.5977 98C92.7153 98 91.9934 97.2836 92.0638 96.404C92.3467 92.8697 93.5653 89.4636 95.6076 86.5419C97.9558 83.1825 101.279 80.6256 105.129 79.2174C108.978 77.8092 113.167 77.6177 117.129 78.6688C120.574 79.583 123.703 81.3986 126.2 83.916C126.821 84.5425 126.732 85.5557 126.058 86.1251V86.1251C125.384 86.6944 124.381 86.6033 123.75 85.9863C121.683 83.9644 119.122 82.5034 116.309 81.7573C112.981 80.8741 109.461 81.035 106.227 82.2182C102.992 83.4014 100.2 85.5498 98.2265 88.3725C96.5596 90.7573 95.5457 93.5262 95.2712 96.4047C95.1874 97.2831 94.48 98 93.5977 98V98Z" stroke="black" stroke-width="10" mask="url(#path-8-inside-3_26_31)"/>
<mask id="path-9-inside-4_26_31" fill="white">
<path d="M6.98758 84.9876C6.36365 84.3637 6.35979 83.3466 7.03151 82.7744C9.62289 80.5672 12.7423 79.0518 16.0982 78.3843C19.9778 77.6126 23.9991 78.0087 27.6537 79.5224C31.3082 81.0362 34.4318 83.5996 36.6294 86.8886C38.5303 89.7336 39.6646 93.0108 39.9362 96.404C40.0066 97.2835 39.2847 98 38.4023 98V98C37.52 98 36.8126 97.2831 36.7288 96.4047C36.4656 93.6444 35.5223 90.9831 33.9726 88.6638C32.1261 85.9003 29.5015 83.7464 26.4309 82.4745C23.3602 81.2026 19.9814 80.8698 16.7216 81.5182C13.9858 82.0624 11.437 83.2772 9.29899 85.0429C8.61865 85.6048 7.6115 85.6115 6.98758 84.9876V84.9876Z"/>
</mask>
<path d="M6.98758 84.9876C6.36365 84.3637 6.35979 83.3466 7.03151 82.7744C9.62289 80.5672 12.7423 79.0518 16.0982 78.3843C19.9778 77.6126 23.9991 78.0087 27.6537 79.5224C31.3082 81.0362 34.4318 83.5996 36.6294 86.8886C38.5303 89.7336 39.6646 93.0108 39.9362 96.404C40.0066 97.2835 39.2847 98 38.4023 98V98C37.52 98 36.8126 97.2831 36.7288 96.4047C36.4656 93.6444 35.5223 90.9831 33.9726 88.6638C32.1261 85.9003 29.5015 83.7464 26.4309 82.4745C23.3602 81.2026 19.9814 80.8698 16.7216 81.5182C13.9858 82.0624 11.437 83.2772 9.29899 85.0429C8.61865 85.6048 7.6115 85.6115 6.98758 84.9876V84.9876Z" stroke="black" stroke-width="10" mask="url(#path-9-inside-4_26_31)"/>
<circle cx="173" cy="87" r="2.5" stroke="black" stroke-width="5"/>
<circle cx="278" cy="88" r="2.5" stroke="black" stroke-width="5"/>
<path d="M308.5 87C308.5 104.468 294.775 118.5 278 118.5C261.225 118.5 247.5 104.468 247.5 87C247.5 69.5322 261.225 55.5 278 55.5C294.775 55.5 308.5 69.5322 308.5 87Z" stroke="black" stroke-width="5"/>
<path d="M222 89.5C223.381 89.5 224.5 88.3807 224.5 87C224.5 85.6193 223.381 84.5 222 84.5V89.5ZM172 89.5H222V84.5H172V89.5Z" fill="black"/>
<path d="M257 41.5C258.381 41.5 259.5 40.3807 259.5 39C259.5 37.6193 258.381 36.5 257 36.5V41.5ZM200 41.5L257 41.5V36.5L200 36.5V41.5Z" fill="black"/>
<path d="M112 101.5C113.933 101.5 115.5 99.933 115.5 98C115.5 96.067 113.933 94.5 112 94.5V101.5ZM54 101.5L112 101.5V94.5L54 94.5V101.5Z" fill="black"/>
<path d="M222 87L258 40" stroke="black" stroke-width="5" stroke-linecap="round"/>
<path d="M173 87L199 37" stroke="black" stroke-width="5" stroke-linecap="round"/>
<path d="M183 24H205" stroke="black" stroke-width="5" stroke-linecap="round"/>
<path d="M236 24L252 24" stroke="black" stroke-width="5" stroke-linecap="round"/>
<path d="M223 86L194 24" stroke="black" stroke-width="5" stroke-linecap="round"/>
<path d="M54 98L30 70" stroke="black" stroke-width="7" stroke-linecap="round"/>
<path d="M33 60L20 98" stroke="black" stroke-width="7" stroke-linecap="round"/>
<path d="M44 24L35 53" stroke="black" stroke-width="5" stroke-linecap="round"/>
<path d="M44 24L32 24" stroke="black" stroke-width="5" stroke-linecap="round"/>
<path d="M278 87L252 24" stroke="black" stroke-width="5" stroke-linecap="round"/>
<g clip-path="url(#clip0_26_31)">
<path d="M131.97 42.2843V37.3345M128.435 23.1924V28.1421M135.506 23.1924V28.1421M126.162 28.2941H137.779L137.779 31.1989C137.795 31.9713 137.655 32.739 137.37 33.457C137.085 34.1751 136.66 34.829 136.119 35.3807C135.578 35.9323 134.932 36.3705 134.22 36.6696C133.508 36.9688 132.743 37.1229 131.971 37.1229C131.198 37.1229 130.433 36.9688 129.721 36.6696C129.009 36.3705 128.363 35.9323 127.822 35.3807C127.281 34.829 126.856 34.1751 126.571 33.457C126.286 32.739 126.146 31.9713 126.162 31.1989V28.2941Z" stroke="#91A81C" stroke-width="2" stroke-linecap="round" stroke-linejoin="round"/>
</g>
<path d="M341.32 121C338.8 121 336.84 120.347 335.44 119.04C334.133 117.64 333.48 115.68 333.48 113.16V30.14C333.48 27.62 334.133 25.7067 335.44 24.4C336.84 23 338.8 22.3 341.32 22.3H392.42C394.38 22.3 395.873 22.8133 396.9 23.84C397.927 24.7733 398.44 26.1733 398.44 28.04C398.44 30 397.927 31.4933 396.9 32.52C395.873 33.5467 394.38 34.06 392.42 34.06H347.48V65H389.34C391.393 65 392.887 65.5133 393.82 66.54C394.847 67.5667 395.36 69.0133 395.36 70.88C395.36 72.84 394.847 74.3333 393.82 75.36C392.887 76.2933 391.393 76.76 389.34 76.76H347.48V109.24H392.42C394.38 109.24 395.873 109.753 396.9 110.78C397.927 111.807 398.44 113.253 398.44 115.12C398.44 117.08 397.927 118.573 396.9 119.6C395.873 120.533 394.38 121 392.42 121H341.32ZM423.761 121C421.241 121 419.281 120.347 417.881 119.04C416.575 117.64 415.921 115.68 415.921 113.16V30.14C415.921 27.62 416.575 25.7067 417.881 24.4C419.281 23 421.241 22.3 423.761 22.3H457.081C463.895 22.3 469.681 23.3267 474.441 25.38C479.295 27.4333 482.981 30.3733 485.501 34.2C488.115 38.0267 489.421 42.6467 489.421 48.06C489.421 54.0333 487.648 59.0733 484.101 63.18C480.555 67.2867 475.748 70.04 469.681 71.44V69.34C476.588 70.2733 482.001 72.8867 485.921 77.18C489.841 81.38 491.801 86.8867 491.801 93.7C491.801 102.473 488.908 109.24 483.121 114C477.335 118.667 469.215 121 458.761 121H423.761ZM429.921 109.8H457.081C464.081 109.8 469.261 108.447 472.621 105.74C475.981 102.94 477.661 98.74 477.661 93.14C477.661 87.54 475.981 83.3867 472.621 80.68C469.261 77.9733 464.081 76.62 457.081 76.62H429.921V109.8ZM429.921 65.42H454.841C461.561 65.42 466.648 64.0667 470.101 61.36C473.555 58.6533 475.281 54.6867 475.281 49.46C475.281 44.2333 473.555 40.2667 470.101 37.56C466.648 34.8533 461.561 33.5 454.841 33.5H429.921V65.42ZM544.251 122.26C539.958 122.26 535.758 121.933 531.651 121.28C527.544 120.627 523.671 119.647 520.031 118.34C516.391 116.94 513.124 115.26 510.231 113.3C508.831 112.273 507.851 111.107 507.291 109.8C506.824 108.493 506.684 107.233 506.871 106.02C507.151 104.713 507.711 103.593 508.551 102.66C509.391 101.727 510.418 101.167 511.631 100.98C512.844 100.7 514.198 101.073 515.691 102.1C519.891 104.807 524.324 106.813 528.991 108.12C533.658 109.333 538.744 109.94 544.251 109.94C552.184 109.94 558.018 108.54 561.751 105.74C565.578 102.847 567.491 99.1133 567.491 94.54C567.491 90.8067 566.138 87.8667 563.431 85.72C560.724 83.48 556.198 81.7067 549.851 80.4L534.871 77.32C526.004 75.4533 519.378 72.3733 514.991 68.08C510.698 63.7867 508.551 58 508.551 50.72C508.551 46.3333 509.438 42.32 511.211 38.68C513.078 35.04 515.644 31.9133 518.911 29.3C522.178 26.5933 526.098 24.54 530.671 23.14C535.244 21.74 540.238 21.04 545.651 21.04C551.438 21.04 556.851 21.7867 561.891 23.28C567.024 24.7733 571.598 27.06 575.611 30.14C576.824 30.98 577.618 32.0533 577.991 33.36C578.458 34.5733 578.551 35.7867 578.271 37C578.084 38.2133 577.571 39.24 576.731 40.08C575.891 40.92 574.818 41.4333 573.511 41.62C572.204 41.7133 570.758 41.2467 569.171 40.22C565.531 37.7933 561.798 36.0667 557.971 35.04C554.238 33.92 550.084 33.36 545.511 33.36C540.938 33.36 536.924 34.06 533.471 35.46C530.111 36.86 527.498 38.82 525.631 41.34C523.858 43.86 522.971 46.8467 522.971 50.3C522.971 54.22 524.231 57.3467 526.751 59.68C529.271 62.0133 533.471 63.7867 539.351 65L554.191 68.08C563.524 70.04 570.478 73.0733 575.051 77.18C579.624 81.2867 581.911 86.7467 581.911 93.56C581.911 97.9467 581.024 101.913 579.251 105.46C577.478 108.913 574.958 111.9 571.691 114.42C568.424 116.94 564.458 118.9 559.791 120.3C555.218 121.607 550.038 122.26 544.251 122.26ZM679.595 122.26C669.608 122.26 661.068 120.207 653.975 116.1C646.882 111.993 641.422 106.16 637.595 98.6C633.862 90.9467 631.995 81.94 631.995 71.58C631.995 63.8333 633.068 56.88 635.215 50.72C637.362 44.4667 640.442 39.1467 644.455 34.76C648.562 30.28 653.555 26.8733 659.435 24.54C665.408 22.2067 672.128 21.04 679.595 21.04C685.102 21.04 690.375 21.7867 695.415 23.28C700.548 24.7733 704.982 26.92 708.715 29.72C710.302 30.7467 711.328 32.0067 711.795 33.5C712.355 34.9 712.448 36.2533 712.075 37.56C711.795 38.8667 711.188 39.9867 710.255 40.92C709.322 41.76 708.108 42.2267 706.615 42.32C705.215 42.4133 703.675 41.9 701.995 40.78C698.915 38.4467 695.508 36.72 691.775 35.6C688.042 34.48 684.122 33.92 680.015 33.92C672.922 33.92 666.948 35.4133 662.095 38.4C657.242 41.2933 653.555 45.54 651.035 51.14C648.515 56.74 647.255 63.5533 647.255 71.58C647.255 79.6067 648.515 86.4667 651.035 92.16C653.555 97.76 657.242 102.053 662.095 105.04C666.948 107.933 672.922 109.38 680.015 109.38C684.122 109.38 688.042 108.82 691.775 107.7C695.602 106.487 699.195 104.713 702.555 102.38C704.235 101.353 705.728 100.887 707.035 100.98C708.435 101.073 709.602 101.54 710.535 102.38C711.468 103.22 712.075 104.293 712.355 105.6C712.728 106.813 712.682 108.12 712.215 109.52C711.842 110.827 710.955 111.947 709.555 112.88C705.728 115.96 701.202 118.293 695.975 119.88C690.748 121.467 685.288 122.26 679.595 122.26ZM737.244 121.98C734.911 121.98 733.091 121.327 731.784 120.02C730.571 118.713 729.964 116.893 729.964 114.56V28.74C729.964 26.3133 730.571 24.4933 731.784 23.28C733.091 21.9733 734.911 21.32 737.244 21.32C739.578 21.32 741.351 21.9733 742.564 23.28C743.871 24.4933 744.524 26.3133 744.524 28.74V64.86H799.824V28.74C799.824 26.3133 800.431 24.4933 801.644 23.28C802.951 21.9733 804.771 21.32 807.104 21.32C809.438 21.32 811.211 21.9733 812.424 23.28C813.638 24.4933 814.244 26.3133 814.244 28.74V114.56C814.244 116.893 813.638 118.713 812.424 120.02C811.211 121.327 809.438 121.98 807.104 121.98C804.771 121.98 802.951 121.327 801.644 120.02C800.431 118.713 799.824 116.893 799.824 114.56V77.04H744.524V114.56C744.524 116.893 743.918 118.713 742.704 120.02C741.491 121.327 739.671 121.98 737.244 121.98ZM836.729 121.98C834.862 121.98 833.369 121.56 832.249 120.72C831.129 119.88 830.475 118.76 830.289 117.36C830.102 115.96 830.382 114.373 831.129 112.6L869.069 27.48C870.002 25.24 871.169 23.6533 872.569 22.72C874.062 21.7867 875.695 21.32 877.469 21.32C879.149 21.32 880.689 21.7867 882.089 22.72C883.582 23.6533 884.795 25.24 885.729 27.48L923.669 112.6C924.509 114.373 924.835 116.007 924.649 117.5C924.462 118.9 923.855 120.02 922.829 120.86C921.802 121.607 920.355 121.98 918.489 121.98C916.435 121.98 914.802 121.467 913.589 120.44C912.375 119.413 911.302 117.827 910.369 115.68L900.569 93L907.149 96.92H847.509L853.949 93L844.289 115.68C843.355 117.92 842.329 119.553 841.209 120.58C840.089 121.513 838.595 121.98 836.729 121.98ZM877.189 38.4L856.049 88.52L852.549 85.16H901.969L898.749 88.52L877.469 38.4H877.189ZM947.655 121.98C945.321 121.98 943.501 121.327 942.195 120.02C940.981 118.713 940.375 116.893 940.375 114.56V29.72C940.375 27.2933 941.028 25.4733 942.335 24.26C943.641 22.9533 945.461 22.3 947.795 22.3H981.255C991.895 22.3 1000.11 24.82 1005.89 29.86C1011.68 34.9 1014.57 42.04 1014.57 51.28C1014.57 57.2533 1013.27 62.3867 1010.65 66.68C1008.04 70.9733 1004.21 74.24 999.175 76.48C994.228 78.72 988.255 79.84 981.255 79.84L982.515 77.88H986.155C989.888 77.88 993.108 78.8133 995.815 80.68C998.615 82.5467 1001.13 85.5333 1003.37 89.64L1015.41 112.04C1016.35 113.72 1016.77 115.353 1016.67 116.94C1016.67 118.433 1016.11 119.647 1014.99 120.58C1013.97 121.513 1012.47 121.98 1010.51 121.98C1008.46 121.98 1006.78 121.56 1005.47 120.72C1004.26 119.787 1003.14 118.433 1002.11 116.66L987.415 89.5C985.455 85.86 983.215 83.4333 980.695 82.22C978.175 80.9133 974.861 80.26 970.755 80.26H954.935V114.56C954.935 116.893 954.328 118.713 953.115 120.02C951.901 121.327 950.081 121.98 947.655 121.98ZM954.935 69.34H978.875C985.968 69.34 991.335 67.8467 994.975 64.86C998.615 61.8733 1000.43 57.44 1000.43 51.56C1000.43 45.7733 998.615 41.3867 994.975 38.4C991.335 35.4133 985.968 33.92 978.875 33.92H954.935V69.34ZM1080.64 122.26C1069.9 122.26 1060.85 120.253 1053.48 116.24C1046.1 112.133 1040.5 106.3 1036.68 98.74C1032.94 91.18 1031.08 82.1733 1031.08 71.72C1031.08 63.88 1032.15 56.88 1034.3 50.72C1036.54 44.4667 1039.71 39.1467 1043.82 34.76C1048.02 30.28 1053.1 26.8733 1059.08 24.54C1065.14 22.2067 1072 21.04 1079.66 21.04C1085.26 21.04 1090.76 21.7867 1096.18 23.28C1101.59 24.68 1106.54 27.0133 1111.02 30.28C1112.32 31.2133 1113.16 32.2867 1113.54 33.5C1113.91 34.7133 1113.91 35.9733 1113.54 37.28C1113.26 38.4933 1112.65 39.5667 1111.72 40.5C1110.88 41.4333 1109.8 41.9933 1108.5 42.18C1107.28 42.3667 1105.93 41.9933 1104.44 41.06C1100.8 38.54 1096.97 36.72 1092.96 35.6C1088.94 34.3867 1084.51 33.78 1079.66 33.78C1072.38 33.78 1066.22 35.2733 1061.18 38.26C1056.23 41.2467 1052.5 45.5867 1049.98 51.28C1047.46 56.88 1046.2 63.6933 1046.2 71.72C1046.2 84.1333 1049.14 93.56 1055.02 100C1060.9 106.44 1069.62 109.66 1081.2 109.66C1085.4 109.66 1089.5 109.287 1093.52 108.54C1097.62 107.7 1101.54 106.533 1105.28 105.04L1102.34 112.32V79.7H1084.28C1082.41 79.7 1080.92 79.2333 1079.8 78.3C1078.77 77.2733 1078.26 75.8733 1078.26 74.1C1078.26 72.3267 1078.77 71.02 1079.8 70.18C1080.92 69.2467 1082.41 68.78 1084.28 68.78H1108.5C1110.46 68.78 1111.95 69.2933 1112.98 70.32C1114 71.3467 1114.52 72.84 1114.52 74.8V110.08C1114.52 111.76 1114.19 113.207 1113.54 114.42C1112.98 115.54 1112 116.38 1110.6 116.94C1106.58 118.527 1101.87 119.833 1096.46 120.86C1091.04 121.793 1085.77 122.26 1080.64 122.26ZM1144.68 121C1142.16 121 1140.2 120.347 1138.8 119.04C1137.49 117.64 1136.84 115.68 1136.84 113.16V30.14C1136.84 27.62 1137.49 25.7067 1138.8 24.4C1140.2 23 1142.16 22.3 1144.68 22.3H1195.78C1197.74 22.3 1199.23 22.8133 1200.26 23.84C1201.29 24.7733 1201.8 26.1733 1201.8 28.04C1201.8 30 1201.29 31.4933 1200.26 32.52C1199.23 33.5467 1197.74 34.06 1195.78 34.06H1150.84V65H1192.7C1194.75 65 1196.25 65.5133 1197.18 66.54C1198.21 67.5667 1198.72 69.0133 1198.72 70.88C1198.72 72.84 1198.21 74.3333 1197.18 75.36C1196.25 76.2933 1194.75 76.76 1192.7 76.76H1150.84V109.24H1195.78C1197.74 109.24 1199.23 109.753 1200.26 110.78C1201.29 111.807 1201.8 113.253 1201.8 115.12C1201.8 117.08 1201.29 118.573 1200.26 119.6C1199.23 120.533 1197.74 121 1195.78 121H1144.68Z" fill="#91A81C"/>
<defs>
<clipPath id="clip0_26_31">
<rect width="24" height="24" fill="white" transform="translate(115 30.9706) rotate(-45)"/>
</clipPath>
</defs>
</svg>
