<svg width="25" height="24" viewBox="0 0 25 24" fill="none" xmlns="http://www.w3.org/2000/svg">
<path d="M12.125 2C6.605 2 2.125 6.48 2.125 12C2.125 17.52 6.605 22 12.125 22C17.645 22 22.125 17.52 22.125 12C22.125 6.48 17.645 2 12.125 2ZM7.195 18.28C7.625 17.38 10.245 16.5 12.125 16.5C14.005 16.5 16.635 17.38 17.055 18.28C15.695 19.36 13.985 20 12.125 20C10.265 20 8.555 19.36 7.195 18.28ZM18.485 16.83C17.055 15.09 13.585 14.5 12.125 14.5C10.665 14.5 7.195 15.09 5.765 16.83C4.745 15.49 4.125 13.82 4.125 12C4.125 7.59 7.715 4 12.125 4C16.535 4 20.125 7.59 20.125 12C20.125 13.82 19.505 15.49 18.485 16.83ZM12.125 6C10.185 6 8.625 7.56 8.625 9.5C8.625 11.44 10.185 13 12.125 13C14.065 13 15.625 11.44 15.625 9.5C15.625 7.56 14.065 6 12.125 6ZM12.125 11C11.295 11 10.625 10.33 10.625 9.5C10.625 8.67 11.295 8 12.125 8C12.955 8 13.625 8.67 13.625 9.5C13.625 10.33 12.955 11 12.125 11Z" fill="#4B5565"/>
</svg>
