<svg width="18" height="18" viewBox="0 0 18 18" fill="none" xmlns="http://www.w3.org/2000/svg">
<g clip-path="url(#clip0_418_4986)">
<path d="M15 8.25C14.865 8.25 14.73 8.2725 14.6025 8.2875L13.0575 6.75H15V4.5L12.21 5.895L10.0575 3.75H6.75V5.25H9.4425L10.9425 6.75H8.25L5.25 8.25L3.75 6.75H0V8.25H3C1.3425 8.25 0 9.5925 0 11.25C0 12.9075 1.3425 14.25 3 14.25C4.6575 14.25 6 12.9075 6 11.25L7.5 12.75H9.75L12.3675 8.175L13.125 8.9325C12.4425 9.48 12 10.3125 12 11.25C12 12.9075 13.3425 14.25 15 14.25C16.6575 14.25 18 12.9075 18 11.25C18 9.5925 16.6575 8.25 15 8.25ZM3 12.75C2.175 12.75 1.5 12.075 1.5 11.25C1.5 10.425 2.175 9.75 3 9.75C3.825 9.75 4.5 10.425 4.5 11.25C4.5 12.075 3.825 12.75 3 12.75ZM15 12.75C14.175 12.75 13.5 12.075 13.5 11.25C13.5 10.425 14.175 9.75 15 9.75C15.825 9.75 16.5 10.425 16.5 11.25C16.5 12.075 15.825 12.75 15 12.75Z" fill="#0BA4EB"/>
</g>
<defs>
<clipPath id="clip0_418_4986">
<rect width="18" height="18" fill="white"/>
</clipPath>
</defs>
</svg>
