<svg width="30" height="30" viewBox="0 0 30 30" fill="none" xmlns="http://www.w3.org/2000/svg">
<path d="M5 25L9.375 20.625M18.75 5L14.375 9.375M25 11.25L20.625 15.625M12.2314 7.5L22.5001 17.7688L19.9326 20.3362C19.2633 21.0324 18.4618 21.588 17.5751 21.9707C16.6885 22.3533 15.7344 22.5553 14.7687 22.5648C13.8031 22.5742 12.8452 22.391 11.9512 22.0258C11.0572 21.6606 10.245 21.1208 9.56213 20.438C8.87927 19.7551 8.33946 18.9429 7.97427 18.0489C7.60909 17.1549 7.42588 16.197 7.43535 15.2314C7.44482 14.2657 7.64679 13.3116 8.02944 12.425C8.41208 11.5383 8.96773 10.7368 9.66385 10.0675L12.2314 7.5Z" stroke="#12B669" stroke-width="2" stroke-linecap="round" stroke-linejoin="round"/>
</svg>
