<svg width="38" height="38" viewBox="0 0 38 38" fill="none" xmlns="http://www.w3.org/2000/svg">
<rect width="38" height="38" rx="19" fill="#D1E9FF"/>
<g clip-path="url(#clip0_197_6577)">
<path d="M25.0075 21.535C24.085 21.535 23.1925 21.385 22.36 21.115C22.0975 21.025 21.805 21.0925 21.6025 21.295L20.425 22.7725C18.3025 21.76 16.315 19.8475 15.2575 17.65L16.72 16.405C16.9225 16.195 16.9825 15.9025 16.9 15.64C16.6225 14.8075 16.48 13.915 16.48 12.9925C16.48 12.5875 16.1425 12.25 15.7375 12.25H13.1425C12.7375 12.25 12.25 12.43 12.25 12.9925C12.25 19.96 18.0475 25.75 25.0075 25.75C25.54 25.75 25.75 25.2775 25.75 24.865V22.2775C25.75 21.8725 25.4125 21.535 25.0075 21.535Z" fill="#175CD3"/>
</g>
<defs>
<clipPath id="clip0_197_6577">
<rect width="18" height="18" fill="white" transform="translate(10 10)"/>
</clipPath>
</defs>
</svg>
