<svg width="22" height="22" viewBox="0 0 22 22" fill="none" xmlns="http://www.w3.org/2000/svg">
<g clip-path="url(#clip0_184_3221)">
<path d="M10.9908 1.8335C5.93084 1.8335 1.83334 5.94016 1.83334 11.0002C1.83334 16.0602 5.93084 20.1668 10.9908 20.1668C16.06 20.1668 20.1667 16.0602 20.1667 11.0002C20.1667 5.94016 16.06 1.8335 10.9908 1.8335ZM11 18.3335C6.94834 18.3335 3.66668 15.0518 3.66668 11.0002C3.66668 6.9485 6.94834 3.66683 11 3.66683C15.0517 3.66683 18.3333 6.9485 18.3333 11.0002C18.3333 15.0518 15.0517 18.3335 11 18.3335ZM10.7983 6.41683H10.7433C10.3767 6.41683 10.0833 6.71016 10.0833 7.07683V11.4035C10.0833 11.7243 10.2483 12.0268 10.5325 12.1918L14.3367 14.4743C14.6483 14.6577 15.0517 14.566 15.235 14.2543C15.4275 13.9427 15.3267 13.5302 15.0058 13.3468L11.4583 11.2385V7.07683C11.4583 6.71016 11.165 6.41683 10.7983 6.41683Z" fill="#697586"/>
</g>
<defs>
<clipPath id="clip0_184_3221">
<rect width="22" height="22" fill="white"/>
</clipPath>
</defs>
</svg>
