<svg width="18" height="18" viewBox="0 0 18 18" fill="none" xmlns="http://www.w3.org/2000/svg">
<g clip-path="url(#clip0_422_5043)">
<path d="M14.19 4.5075C14.04 4.065 13.62 3.75 13.125 3.75H4.875C4.38 3.75 3.9675 4.065 3.81 4.5075L2.25 9V15C2.25 15.4125 2.5875 15.75 3 15.75H3.75C4.1625 15.75 4.5 15.4125 4.5 15V14.25H13.5V15C13.5 15.4125 13.8375 15.75 14.25 15.75H15C15.4125 15.75 15.75 15.4125 15.75 15V9L14.19 4.5075ZM4.875 12C4.2525 12 3.75 11.4975 3.75 10.875C3.75 10.2525 4.2525 9.75 4.875 9.75C5.4975 9.75 6 10.2525 6 10.875C6 11.4975 5.4975 12 4.875 12ZM13.125 12C12.5025 12 12 11.4975 12 10.875C12 10.2525 12.5025 9.75 13.125 9.75C13.7475 9.75 14.25 10.2525 14.25 10.875C14.25 11.4975 13.7475 12 13.125 12ZM3.75 8.25L4.875 4.875H13.125L14.25 8.25H3.75Z" fill="#364152"/>
</g>
<defs>
<clipPath id="clip0_422_5043">
<rect width="18" height="18" fill="white"/>
</clipPath>
</defs>
</svg>
