<svg width="22" height="22" viewBox="0 0 22 22" fill="none" xmlns="http://www.w3.org/2000/svg">
<g clip-path="url(#clip0_102_65296)">
<path d="M20.1666 9.16663V5.49996C20.1666 4.49163 19.3416 3.66663 18.3333 3.66663H3.66665C2.65831 3.66663 1.84248 4.49163 1.84248 5.49996V9.16663C2.85081 9.16663 3.66665 9.99163 3.66665 11C3.66665 12.0083 2.85081 12.8333 1.83331 12.8333V16.5C1.83331 17.5083 2.65831 18.3333 3.66665 18.3333H18.3333C19.3416 18.3333 20.1666 17.5083 20.1666 16.5V12.8333C19.1583 12.8333 18.3333 12.0083 18.3333 11C18.3333 9.99163 19.1583 9.16663 20.1666 9.16663ZM18.3333 7.82829C17.2425 8.46079 16.5 9.65246 16.5 11C16.5 12.3475 17.2425 13.5391 18.3333 14.1716V16.5H3.66665V14.1716C4.75748 13.5391 5.49998 12.3475 5.49998 11C5.49998 9.64329 4.76665 8.46079 3.67581 7.82829L3.66665 5.49996H18.3333V7.82829ZM8.31415 14.6666L11 12.9433L13.6858 14.6666L12.87 11.5866L15.3358 9.56996L12.155 9.37746L11 6.41663L9.83581 9.36829L6.65498 9.56079L9.12081 11.5775L8.31415 14.6666Z" fill="#697586"/>
</g>
<defs>
<clipPath id="clip0_102_65296">
<rect width="22" height="22" fill="white"/>
</clipPath>
</defs>
</svg>
