<svg width="22" height="22" viewBox="0 0 22 22" fill="none" xmlns="http://www.w3.org/2000/svg">
<g clip-path="url(#clip0_197_8379)">
<path d="M17.3433 5.50909C17.16 4.96825 16.6467 4.58325 16.0417 4.58325H5.95833C5.35333 4.58325 4.84917 4.96825 4.65667 5.50909L2.75 10.9999V18.3333C2.75 18.8374 3.1625 19.2499 3.66667 19.2499H4.58333C5.0875 19.2499 5.5 18.8374 5.5 18.3333V17.4166H16.5V18.3333C16.5 18.8374 16.9125 19.2499 17.4167 19.2499H18.3333C18.8375 19.2499 19.25 18.8374 19.25 18.3333V10.9999L17.3433 5.50909ZM6.27917 6.41659H15.7117L16.7017 9.26742H5.28917L6.27917 6.41659ZM17.4167 15.5833H4.58333V10.9999H17.4167V15.5833Z" fill="#697586"/>
<path d="M6.875 14.6667C7.63439 14.6667 8.25 14.0511 8.25 13.2917C8.25 12.5324 7.63439 11.9167 6.875 11.9167C6.11561 11.9167 5.5 12.5324 5.5 13.2917C5.5 14.0511 6.11561 14.6667 6.875 14.6667Z" fill="#697586"/>
<path d="M15.125 14.6667C15.8844 14.6667 16.5 14.0511 16.5 13.2917C16.5 12.5324 15.8844 11.9167 15.125 11.9167C14.3656 11.9167 13.75 12.5324 13.75 13.2917C13.75 14.0511 14.3656 14.6667 15.125 14.6667Z" fill="#697586"/>
</g>
<defs>
<clipPath id="clip0_197_8379">
<rect width="22" height="22" fill="white"/>
</clipPath>
</defs>
</svg>
