<svg width="22" height="22" viewBox="0 0 22 22" fill="none" xmlns="http://www.w3.org/2000/svg">
<g clip-path="url(#clip0_274_3243)">
<path d="M11 5.5C12.0175 5.5 12.8333 4.675 12.8333 3.66667C12.8333 3.31833 12.7417 2.9975 12.5675 2.7225L11 0L9.4325 2.7225C9.25833 2.9975 9.16667 3.31833 9.16667 3.66667C9.16667 4.675 9.99167 5.5 11 5.5ZM16.5 8.25H11.9167V6.41667H10.0833V8.25H5.5C3.97833 8.25 2.75 9.47833 2.75 11V19.25C2.75 19.7542 3.1625 20.1667 3.66667 20.1667H18.3333C18.8375 20.1667 19.25 19.7542 19.25 19.25V11C19.25 9.47833 18.0217 8.25 16.5 8.25ZM17.4167 18.3333H4.58333V15.5833C5.40833 15.5742 6.19667 15.2442 6.78333 14.6575L7.7825 13.6767L8.76333 14.6575C9.96417 15.8583 12.0542 15.8492 13.2458 14.6575L14.2358 13.6767L15.2167 14.6575C15.8033 15.2442 16.5917 15.5742 17.4167 15.5833V18.3333ZM17.4167 14.2083C16.9492 14.1992 16.5092 14.025 16.1792 13.6858L14.2267 11.7333L12.265 13.6858C11.5867 14.3642 10.4042 14.3642 9.72583 13.6858L7.77333 11.7333L5.81167 13.6858C5.49083 14.0158 5.05083 14.1992 4.58333 14.2083V11C4.58333 10.4958 4.99583 10.0833 5.5 10.0833H16.5C17.0042 10.0833 17.4167 10.4958 17.4167 11V14.2083Z" fill="#697586"/>
</g>
<defs>
<clipPath id="clip0_274_3243">
<rect width="22" height="22" fill="white"/>
</clipPath>
</defs>
</svg>
