<svg width="42" height="42" viewBox="0 0 42 42" fill="none" xmlns="http://www.w3.org/2000/svg">
<rect width="42" height="42" rx="21" fill="#EEF2F6"/>
<g clip-path="url(#clip0_437_5589)">
<path d="M20.9902 11C15.4702 11 10.9902 15.48 10.9902 21C10.9902 26.52 15.4702 31 20.9902 31C26.5102 31 30.9902 26.52 30.9902 21C30.9902 15.48 26.5102 11 20.9902 11ZM24.6002 17.34C25.6702 17.34 26.5302 18.2 26.5302 19.27C26.5302 20.34 25.6702 21.2 24.6002 21.2C23.5302 21.2 22.6702 20.34 22.6702 19.27C22.6602 18.2 23.5302 17.34 24.6002 17.34ZM18.6002 15.76C19.9002 15.76 20.9602 16.82 20.9602 18.12C20.9602 19.42 19.9002 20.48 18.6002 20.48C17.3002 20.48 16.2402 19.42 16.2402 18.12C16.2402 16.81 17.2902 15.76 18.6002 15.76ZM18.6002 24.89V28.64C16.2002 27.89 14.3002 26.04 13.4602 23.68C14.5102 22.56 17.1302 21.99 18.6002 21.99C19.1302 21.99 19.8002 22.07 20.5002 22.21C18.8602 23.08 18.6002 24.23 18.6002 24.89ZM20.9902 29C20.7202 29 20.4602 28.99 20.2002 28.96V24.89C20.2002 23.47 23.1402 22.76 24.6002 22.76C25.6702 22.76 27.5202 23.15 28.4402 23.91C27.2702 26.88 24.3802 29 20.9902 29Z" fill="#4B5565"/>
</g>
<defs>
<clipPath id="clip0_437_5589">
<rect width="24" height="24" fill="white" transform="translate(9 9)"/>
</clipPath>
</defs>
</svg>
