<svg width="48" height="48" viewBox="0 0 48 48" fill="none" xmlns="http://www.w3.org/2000/svg">
<rect width="48" height="48" rx="24" fill="#FAC414"/>
<g clip-path="url(#clip0_243_5150)">
<path d="M24 14C20.13 14 17 17.13 17 21C17 22.74 17.5 24.37 18.41 25.84C19.36 27.38 20.61 28.7 21.57 30.24C22.04 30.99 22.38 31.69 22.74 32.5C23 33.05 23.21 34 24 34C24.79 34 25 33.05 25.25 32.5C25.62 31.69 25.95 30.99 26.42 30.24C27.38 28.71 28.63 27.39 29.58 25.84C30.5 24.37 31 22.74 31 21C31 17.13 27.87 14 24 14ZM24 23.75C22.62 23.75 21.5 22.63 21.5 21.25C21.5 19.87 22.62 18.75 24 18.75C25.38 18.75 26.5 19.87 26.5 21.25C26.5 22.63 25.38 23.75 24 23.75Z" fill="#85490D"/>
</g>
<defs>
<clipPath id="clip0_243_5150">
<rect width="24" height="24" fill="white" transform="translate(12 12)"/>
</clipPath>
</defs>
</svg>
