<svg width="52" height="52" viewBox="0 0 52 52" fill="none" xmlns="http://www.w3.org/2000/svg">
<rect width="52" height="52" rx="26" fill="#FEFBE8"/>
<g clip-path="url(#clip0_437_5546)">
<path d="M35.3335 19.0002H32.7902C32.9185 18.6385 33.0002 18.2418 33.0002 17.8335C33.0002 15.8968 31.4368 14.3335 29.5002 14.3335C28.2752 14.3335 27.2135 14.9635 26.5835 15.9085L26.0002 16.6902L25.4168 15.8968C24.7868 14.9635 23.7252 14.3335 22.5002 14.3335C20.5635 14.3335 19.0002 15.8968 19.0002 17.8335C19.0002 18.2418 19.0818 18.6385 19.2102 19.0002H16.6668C15.3718 19.0002 14.3452 20.0385 14.3452 21.3335L14.3335 34.1668C14.3335 35.4618 15.3718 36.5002 16.6668 36.5002H35.3335C36.6285 36.5002 37.6668 35.4618 37.6668 34.1668V21.3335C37.6668 20.0385 36.6285 19.0002 35.3335 19.0002ZM29.5002 16.6668C30.1418 16.6668 30.6668 17.1918 30.6668 17.8335C30.6668 18.4752 30.1418 19.0002 29.5002 19.0002C28.8585 19.0002 28.3335 18.4752 28.3335 17.8335C28.3335 17.1918 28.8585 16.6668 29.5002 16.6668ZM22.5002 16.6668C23.1418 16.6668 23.6668 17.1918 23.6668 17.8335C23.6668 18.4752 23.1418 19.0002 22.5002 19.0002C21.8585 19.0002 21.3335 18.4752 21.3335 17.8335C21.3335 17.1918 21.8585 16.6668 22.5002 16.6668ZM35.3335 34.1668H16.6668V31.8335H35.3335V34.1668ZM35.3335 28.3335H16.6668V21.3335H22.5935L20.1668 24.6352L22.0568 26.0002L24.8335 22.2202L26.0002 20.6335L27.1668 22.2202L29.9435 26.0002L31.8335 24.6352L29.4068 21.3335H35.3335V28.3335Z" fill="#CA8403"/>
</g>
<defs>
<clipPath id="clip0_437_5546">
<rect width="28" height="28" fill="white" transform="translate(12 12)"/>
</clipPath>
</defs>
</svg>
