<svg width="22" height="22" viewBox="0 0 22 22" fill="none" xmlns="http://www.w3.org/2000/svg">
<g clip-path="url(#clip0_102_64950)">
<path d="M11 1.83337C5.93998 1.83337 1.83331 5.94004 1.83331 11C1.83331 16.06 5.93998 20.1667 11 20.1667C16.06 20.1667 20.1666 16.06 20.1666 11C20.1666 5.94004 16.06 1.83337 11 1.83337ZM6.48081 16.7567C6.87498 15.9317 9.27665 15.125 11 15.125C12.7233 15.125 15.1341 15.9317 15.5191 16.7567C14.2725 17.7467 12.705 18.3334 11 18.3334C9.29498 18.3334 7.72748 17.7467 6.48081 16.7567ZM16.83 15.4275C15.5191 13.8325 12.3383 13.2917 11 13.2917C9.66165 13.2917 6.48081 13.8325 5.16998 15.4275C4.23498 14.1992 3.66665 12.6684 3.66665 11C3.66665 6.95754 6.95748 3.66671 11 3.66671C15.0425 3.66671 18.3333 6.95754 18.3333 11C18.3333 12.6684 17.765 14.1992 16.83 15.4275ZM11 5.50004C9.22165 5.50004 7.79165 6.93004 7.79165 8.70837C7.79165 10.4867 9.22165 11.9167 11 11.9167C12.7783 11.9167 14.2083 10.4867 14.2083 8.70837C14.2083 6.93004 12.7783 5.50004 11 5.50004ZM11 10.0834C10.2391 10.0834 9.62498 9.46921 9.62498 8.70837C9.62498 7.94754 10.2391 7.33337 11 7.33337C11.7608 7.33337 12.375 7.94754 12.375 8.70837C12.375 9.46921 11.7608 10.0834 11 10.0834Z" fill="#697586"/>
</g>
<defs>
<clipPath id="clip0_102_64950">
<rect width="22" height="22" fill="white"/>
</clipPath>
</defs>
</svg>
