<svg height="24" viewBox="0 0 24 24" width="24" xmlns="http://www.w3.org/2000/svg">
    <g id="u:import" transform="translate(0 24) rotate(-90)">
        <path d="M19,12a1,1,0,0,0-1,1v4a1,1,0,0,1-1,1H3a1,1,0,0,1-1-1V13a1,1,0,0,0-2,0v4a3,3,0,0,0,3,3H17a3,3,0,0,0,3-3V13a1,1,0,0,0-1-1ZM9.29,13.71a1,1,0,0,0,.33.21.94.94,0,0,0,.76,0,1,1,0,0,0,.33-.21l4-4a1,1,0,0,0-1.42-1.42L11,10.59V1A1,1,0,0,0,9,1v9.59L6.71,8.29A1,1,0,0,0,5.29,9.71Z"
            id="Vector"
            transform="translate(2 2)" />
    </g>
</svg>
